<?xml version="1.0" standalone="no"?>
<!DOCTYPE svg PUBLIC "-//W3C//DTD SVG 20010904//EN"
 "http://www.w3.org/TR/2001/REC-SVG-20010904/DTD/svg10.dtd">
<svg version="1.0" xmlns="http://www.w3.org/2000/svg"
 width="234.000000pt" height="234.000000pt" viewBox="0 0 234.000000 234.000000"
 preserveAspectRatio="xMidYMid meet">
<metadata>
Created by potrace 1.16, written by Peter Selinger 2001-2019
</metadata>
<g transform="translate(0.000000,234.000000) scale(0.100000,-0.100000)"
fill="#000000" stroke="none">
<path d="M930 2320 c-470 -100 -826 -463 -915 -931 -20 -107 -20 -331 0 -438
90 -475 461 -846 936 -936 107 -20 331 -20 438 0 475 90 846 461 936 936 20
107 20 331 0 438 -90 475 -461 846 -936 936 -114 21 -348 19 -459 -5z m421
-85 c225 -39 444 -157 602 -324 405 -430 396 -1085 -22 -1502 -417 -418 -1072
-427 -1502 -22 -173 164 -295 397 -330 632 -22 157 -1 363 55 519 26 73 104
214 156 283 154 204 403 361 650 408 30 6 64 13 75 15 50 10 240 5 316 -9z"/>
<path d="M880 1899 c-387 -54 -496 -111 -550 -287 -28 -89 -37 -194 -18 -209
19 -16 268 -28 288 -14 25 17 -2 32 -79 44 -39 6 -71 14 -71 18 0 22 204 82
405 120 109 21 474 39 510 26 11 -5 -13 -42 -96 -149 -127 -165 -336 -474
-404 -598 -143 -262 -158 -400 -42 -400 35 0 46 6 81 43 23 23 65 87 95 140
49 90 52 99 36 111 -16 11 -15 17 18 82 88 174 292 512 402 665 58 82 65 96
64 138 0 25 -15 87 -32 136 -31 88 -33 91 -82 115 -48 24 -58 25 -255 27 -113
1 -234 -3 -270 -8z"/>
<path d="M1645 1305 c-148 -32 -244 -89 -282 -165 -31 -61 -47 -149 -33 -184
14 -38 129 -90 255 -117 55 -12 114 -28 130 -36 31 -16 85 -62 85 -73 0 -4
-22 -19 -48 -33 -80 -43 -159 -57 -337 -56 -150 0 -158 1 -131 15 37 21 21 38
-28 28 -69 -12 -121 -78 -114 -140 2 -22 12 -34 43 -49 34 -17 64 -21 191 -23
291 -7 452 45 505 163 21 46 24 106 8 138 -41 79 -147 134 -391 202 -49 13
-58 19 -58 39 0 29 22 49 90 80 73 33 191 56 286 56 l77 0 -39 -28 c-47 -35
-68 -58 -60 -70 8 -14 224 96 242 123 10 15 14 40 12 72 -3 45 -5 49 -38 60
-47 16 -289 15 -365 -2z"/>
</g>
</svg>
