<?xml version="1.0" standalone="no"?>
<!DOCTYPE svg PUBLIC "-//W3C//DTD SVG 20010904//EN"
 "http://www.w3.org/TR/2001/REC-SVG-20010904/DTD/svg10.dtd">
<svg version="1.0" xmlns="http://www.w3.org/2000/svg"
 width="85.000000pt" height="84.000000pt" viewBox="0 0 85.000000 84.000000"
 preserveAspectRatio="xMidYMid meet">
<metadata>
Created by potrace 1.16, written by Peter Selinger 2001-2019
</metadata>
<g transform="translate(0.000000,84.000000) scale(0.100000,-0.100000)"
fill="#000000" stroke="none">
<path d="M294 825 c-70 -22 -121 -53 -174 -105 -82 -83 -120 -176 -120 -298 0
-94 21 -166 70 -240 82 -122 198 -182 355 -182 127 0 219 36 299 115 88 88
126 181 126 305 0 124 -37 216 -120 300 -86 85 -177 120 -310 119 -47 -1 -103
-7 -126 -14z m228 -126 c22 -12 48 -66 48 -100 0 -11 -24 -58 -53 -102 -73
-112 -128 -214 -132 -242 -3 -35 -52 -113 -76 -120 -26 -8 -49 11 -49 41 0 46
102 220 221 377 l21 27 -67 0 c-64 0 -193 -22 -238 -40 l-22 -9 23 -7 c13 -3
21 -12 19 -18 -5 -15 -67 -19 -101 -6 -27 10 -28 13 -22 52 14 86 64 128 176
147 78 13 228 13 252 0z m222 -205 c10 -4 16 -18 16 -35 0 -26 -6 -32 -45 -49
-50 -22 -61 -22 -57 -1 5 19 -69 9 -105 -14 l-25 -17 68 -23 c67 -22 114 -60
114 -90 0 -24 -50 -73 -88 -86 -51 -18 -174 -18 -195 0 -22 17 -22 39 0 63 17
19 53 25 53 8 0 -14 87 -12 128 3 44 16 43 29 -4 45 -136 48 -124 40 -124 84
0 48 39 90 97 106 43 11 144 15 167 6z"/>
</g>
</svg>
